<svg xmlns="http://www.w3.org/2000/svg" viewBox="0 0 181.2 124.1"><style>.sx35fd{fill:rgb(0,0,0)}@media(prefers-color-scheme:dark){.sx35fd{fill:rgb(255,255,255)}}</style><g class="sx35fd"><path d="M35.9 87.8V67.5l8.1.3c8.9.3 11.3 1.3 13.4 5.3 1.5 2.9 1.5 9.4 0 12.3-2 3.9-4.6 5.1-12.1 5.5l-6.7.4-.2 8.4c-.2 6.8-.4 8.4-1.3 8.4-1 0-1.2-2.9-1.2-20.3zm17.3-1.2c4-3.6 4.2-10.5.4-14.3-1.8-1.8-2.6-2-8.7-2.2l-6.7-.3v18.8h6.4c5.8 0 6.4-.1 8.6-2zm16.2 21c-.3-.3-.5-6.5-.5-13.9 0-11.4.2-13.4 1.1-13.4 1 0 1.1 2 1.1 13.9 0 12.7-.2 14.9-1.7 13.4zm16-.4c-3-1.5-3.7-4-3.8-12.4 0-8.6.8-10.9 4.5-13.1 4.5-2.7 11.1-.5 13.1 4.4.6 1.4 1.1 4.1 1.1 6v3.4H83.9v3.7c0 5.7 1.4 6.7 9.4 6.7 5.2 0 6.4.2 6.4 1.1s-1.2 1.1-6.2 1.1c-3.5 0-7-.4-8.1-.9zm12.7-16.3c0-7.1-7.3-10.8-12.1-6.1-1.7 1.7-2.2 2.9-2.2 5.2v3.1H98v-2.2h.1zm10.6 15.4v-1.9h27v3.8h-27v-1.9zm26.2 0c0-1-1.9-1.1-12.8-1.1s-12.8.2-12.8 1.1c0 1 1.9 1.1 12.8 1.1s12.8-.2 12.8-1.1zm-66-36.8c0-1.2.4-1.9 1.1-1.9s1.1.7 1.1 1.9-.4 1.9-1.1 1.9-1.1-.7-1.1-1.9zM43 55.3c-1.7-.6-3.1-1.1-3.2-1.1-.1 0-1-1.5-2.1-3.3-1.7-3.1-1.8-3.8-1.8-14.7 0-12.8.7-15.3 4.8-18.3 2-1.4 3.5-1.7 10-1.9 6.5-.2 7.7-.1 7.7.9 0 .9-1.5 1.2-7.5 1.4-7.3.2-7.5.3-9.9 2.7l-2.5 2.4-.2 11.8c-.2 11.4-.2 11.9 1.5 14.4 2.4 3.6 4.6 4.5 10.9 4.5h5.4V34.7h-2.6c-1.8 0-2.6-.3-2.6-1.1s.9-1.1 3.7-1.1c4.7 0 4.6 0 4.4 13.5l-.2 10.1-6.4.2c-4.1 0-7.4-.3-9.4-1zm30.5.3c-3.5-1-4.6-4.2-4.6-12.9 0-6.1.2-7.4 1.7-9.6 2-3 4.5-4.4 7.9-4.4 5.6 0 9.1 4.3 9.1 11.2v3.8H71.2v3.4c0 2.6.4 3.8 1.8 5.3 1.7 1.7 2.4 1.8 8.3 1.8 4.8 0 6.4.2 6.2.9-.4 1.2-10.4 1.5-14 .5zm11.9-17.3c0-6.3-7-9.7-11.7-5.7-1.5 1.3-2.1 2.7-2.4 5.3l-.4 3.5h14.4l.1-3.1zm16.7 17c-3.3-1.4-3.9-3.6-3.9-12.5 0-8.3.9-10.7 4.5-12.9 6.6-4 14.2 1.2 14.2 9.7v4h-16.4v3.6c0 5.7 1 6.5 8.9 6.8 5.2.2 6.8.5 6.8 1.3 0 1.5-10.8 1.4-14.1 0zm12.3-17.5c-.3-2.5-1-4.1-2.4-5.3-4.5-4-11.6-.5-11.6 5.8v3.1h14.5l-.5-3.6zm12.2-2c0-17.2.2-19.9 1.2-19.9s1.1 1.8 1.1 12c0 9.1.2 12 .9 12 .5 0 3.8-1.5 7.2-3.4 3.4-1.8 6.7-3.4 7.3-3.4 2.1 0 1 1.5-2.7 3.5-2.1 1.1-3.7 2.2-3.5 2.5 1.7 3 7.3 15.1 7.3 15.7 0 .5-.4.9-1 .9s-2.6-3.5-4.7-7.9-3.8-7.9-4-7.9-1.8.8-3.4 1.7l-3 1.7-.2 6.2c-.2 4.8-.5 6.2-1.3 6.2-1-.1-1.2-3-1.2-19.9z" style=""/></g></svg>