<svg id="Layer_1" data-name="Layer 1" xmlns="http://www.w3.org/2000/svg" viewBox="0 0 3318 498.43"><defs><style>.cls-1{fill:#fc4d04;}.cls-2{fill:#0fb6f7;}.cls-3{fill:#9321d6;}.cls-4{fill:#cc5fff;}.cls-5{fill:#ff8d8d;}</style></defs><path class="cls-1" d="M192.48,433.33v39.24a47.71,47.71,0,0,0,.28,5.07v-51C192.59,428.88,192.48,431.09,192.48,433.33Z"/><rect class="cls-2" x="386.99" y="330.26" width="166.14" height="166.14" rx="52.28"/><path class="cls-3" d="M45.15,250C45.15,148.66,55.25,9.1,120.81.43A54.89,54.89,0,0,0,114.15,0H52.83A52.83,52.83,0,0,0,0,52.83V445.6a52.83,52.83,0,0,0,52.83,52.83h61.32a55.58,55.58,0,0,0,6.19-.37C66,490,45.15,351.57,45.15,250Z"/><path class="cls-4" d="M167,445.6V52.83A52.82,52.82,0,0,0,120.81.43C55.25,9.1,45.15,148.66,45.15,250c0,101.55,20.8,240,75.19,248A52.83,52.83,0,0,0,167,445.6Z"/><path class="cls-1" d="M192.9,205.48a46.87,46.87,0,0,0-.43,5.92v34.78c0,2.17.11,4.32.28,6.45V209.55C192.76,208.22,192.82,206.86,192.9,205.48Z"/><path class="cls-1" d="M278.53,326.21h5.74a80,80,0,0,0,80-80h0a80,80,0,0,0-80-80H237.73a46.72,46.72,0,0,0-5.91.43C275.12,173.28,278.37,259.94,278.53,326.21Z"/><path class="cls-1" d="M233.31,498a48.25,48.25,0,0,0,6.24.46h38.84a85.91,85.91,0,0,0,85.91-85.91h0v-.4a85.91,85.91,0,0,0-85.77-85.91v5.86C278.53,398.88,270,490.82,233.31,498Z"/><path class="cls-5" d="M278.53,326.21h0c-.16-66.27-3.41-152.93-46.71-159.64a45.23,45.23,0,0,0-38.92,38.91c-.09,1.38-.15,2.74-.15,4.07V456.43A47.06,47.06,0,0,0,233.3,498c36.69-7.15,45.22-99.09,45.22-165.9Z"/><path d="M868.76,442a66.36,66.36,0,0,1-.28,7.81,32.42,32.42,0,0,1-1,5.87,19.36,19.36,0,0,1-1.85,4.46,24.37,24.37,0,0,1-3.91,4.74A80.55,80.55,0,0,1,850,473.42a140.8,140.8,0,0,1-22.21,11.1,186.16,186.16,0,0,1-30.44,9.26,175,175,0,0,1-37.57,3.7q-35.17,0-63.52-11.72A128.09,128.09,0,0,1,648,451.13q-20-22.89-30.71-56.55t-10.76-77.49q0-45,11.59-80.15t32.57-59.5a138.92,138.92,0,0,1,50.13-37.27,158.52,158.52,0,0,1,64.65-12.85,155.53,155.53,0,0,1,30.44,2.92,196,196,0,0,1,27.36,7.41A125.07,125.07,0,0,1,845.58,148a75.34,75.34,0,0,1,13.55,9.63,31.83,31.83,0,0,1,4.87,5.74,18.87,18.87,0,0,1,1.85,4.59,44.77,44.77,0,0,1,1.11,6.29,78.15,78.15,0,0,1,.41,8.65,65.66,65.66,0,0,1-.56,9.5,26.23,26.23,0,0,1-1.68,6.57,9.84,9.84,0,0,1-2.67,3.91,5.83,5.83,0,0,1-3.7,1.25q-3.93,0-10.94-5.44a179,179,0,0,0-18.24-12,148.37,148.37,0,0,0-27-12,117.69,117.69,0,0,0-38-5.45,99.15,99.15,0,0,0-43.93,9.65,92.54,92.54,0,0,0-33.81,28.18,139.29,139.29,0,0,0-21.77,45.65,224.47,224.47,0,0,0-7.67,61.73q0,34.37,7.41,60.74t21.35,44.12a88.8,88.8,0,0,0,34.1,26.81,110.47,110.47,0,0,0,45.75,9,121,121,0,0,0,37.75-5.31A146.56,146.56,0,0,0,831.27,438,216.6,216.6,0,0,0,850,426.08q7.29-5.32,11.51-5.32a6.41,6.41,0,0,1,3.37.85,5.77,5.77,0,0,1,2.24,3.21,29.29,29.29,0,0,1,1.26,6.55C868.61,434.17,868.76,437.7,868.76,442Z"/><path d="M1152,357.65a188.44,188.44,0,0,1-8.09,56.56,125.1,125.1,0,0,1-24.06,44.54,109.88,109.88,0,0,1-40.22,29.18q-24.06,10.45-56,10.48-31,0-54-9.26a98.87,98.87,0,0,1-38.42-26.81,113.51,113.51,0,0,1-22.88-42.73,198,198,0,0,1-7.56-57,192,192,0,0,1,8-56.56,123.14,123.14,0,0,1,24.07-44.55,108.6,108.6,0,0,1,40.07-29Q997,222.2,1029,222.17q31,0,54,9.25a99,99,0,0,1,38.4,26.81,115,115,0,0,1,23,42.73A193.35,193.35,0,0,1,1152,357.65Zm-47.74,3.07a187.31,187.31,0,0,0-3.82-38.52A94.9,94.9,0,0,0,1088,290.35a62.16,62.16,0,0,0-23.68-21.64q-14.91-8-37.19-8-20.59,0-35.37,7.26a65,65,0,0,0-24.38,20.51A92.1,92.1,0,0,0,953.11,320a159.27,159.27,0,0,0-4.61,39.62,188.72,188.72,0,0,0,3.71,38.88,91.66,91.66,0,0,0,12.68,31.7,63.77,63.77,0,0,0,23.81,21.49q14.94,8,37.19,8a79.94,79.94,0,0,0,35.18-7.26A65.13,65.13,0,0,0,1085.58,432a88.72,88.72,0,0,0,14.09-31.29A165.87,165.87,0,0,0,1104.3,360.72Z"/><path d="M1400.82,486.12a7.07,7.07,0,0,1-1,3.7,7.79,7.79,0,0,1-3.5,2.65,24.79,24.79,0,0,1-6.56,1.66,74.72,74.72,0,0,1-9.92.58,79.54,79.54,0,0,1-10.46-.58,22.59,22.59,0,0,1-6.42-1.66,6.77,6.77,0,0,1-3.23-2.65,7.92,7.92,0,0,1-.83-3.7V452.79q-21.5,23.76-42.45,34.62A91,91,0,0,1,1274,498.32q-25.14,0-42.31-8.39a74.37,74.37,0,0,1-27.77-22.75,92.31,92.31,0,0,1-15.22-33.51,201.38,201.38,0,0,1-4.6-46.51V234.83a6.89,6.89,0,0,1,1-3.7,8.35,8.35,0,0,1,3.7-2.78,22.68,22.68,0,0,1,7.26-1.69c3-.27,6.69-.4,11.1-.4s8.21.13,11.11.4a21.36,21.36,0,0,1,7.13,1.69,9.56,9.56,0,0,1,3.7,2.78,6.25,6.25,0,0,1,1.11,3.7V381.09q0,22.08,3.23,35.32a65.64,65.64,0,0,0,9.77,22.63,45.31,45.31,0,0,0,16.66,14.53,50.57,50.57,0,0,0,23.46,5.16q17.33,0,34.49-12.29t36.45-36V234.83a7,7,0,0,1,1-3.7,8.62,8.62,0,0,1,3.7-2.78,22.51,22.51,0,0,1,7.13-1.69q4.29-.41,11.31-.4,6.69,0,11.11.4a19.85,19.85,0,0,1,7,1.69,11.21,11.21,0,0,1,3.7,2.78,5.84,5.84,0,0,1,1.26,3.7Z"/><path d="M1597.85,251.13c0,4.09-.11,7.54-.28,10.33a26.61,26.61,0,0,1-1.13,6.57,9.56,9.56,0,0,1-2.09,3.71,4.76,4.76,0,0,1-3.48,1.26,15.71,15.71,0,0,1-5.44-1.26c-2.15-.84-4.57-1.69-7.28-2.52s-5.72-1.63-9.07-2.37a50.47,50.47,0,0,0-10.89-1.13,35.16,35.16,0,0,0-13.68,2.8,53.49,53.49,0,0,0-14.1,9.25,113.87,113.87,0,0,0-15.5,17q-8.12,10.63-17.89,25.91V486.05a6.3,6.3,0,0,1-1.11,3.71,8.74,8.74,0,0,1-3.7,2.64,25.86,25.86,0,0,1-7,1.67,95.3,95.3,0,0,1-11.46.57,93.74,93.74,0,0,1-11.11-.57,27.65,27.65,0,0,1-7.12-1.67,7.72,7.72,0,0,1-3.71-2.64,7,7,0,0,1-1-3.71V234.71a7.66,7.66,0,0,1,.83-3.7,7.45,7.45,0,0,1,3.35-2.78,18.55,18.55,0,0,1,6.41-1.68,102.1,102.1,0,0,1,10.35-.41c4.09,0,7.4.13,10.18.41a16.3,16.3,0,0,1,6.3,1.68,8.83,8.83,0,0,1,3.2,2.78,7.07,7.07,0,0,1,1,3.7v36.58a196.25,196.25,0,0,1,19.4-24.56,107.28,107.28,0,0,1,17.18-14.95,53.7,53.7,0,0,1,16.06-7.55,63.1,63.1,0,0,1,16.07-2.09c2.4,0,5.16.15,8.23.42a78.16,78.16,0,0,1,9.63,1.54,83.42,83.42,0,0,1,9.07,2.52,18.88,18.88,0,0,1,5.74,2.79,7.87,7.87,0,0,1,2.22,2.65,15.66,15.66,0,0,1,1,3.21,35.3,35.3,0,0,1,.56,5.72C1597.8,243.45,1597.85,246.85,1597.85,251.13Z"/><path d="M1789.74,417.69a79.47,79.47,0,0,1-7.11,34.36,70.1,70.1,0,0,1-20.25,25.4,91.17,91.17,0,0,1-31.29,15.65,141.86,141.86,0,0,1-39.94,5.31,150.71,150.71,0,0,1-25.54-2.09,154,154,0,0,1-21.8-5.32,114.65,114.65,0,0,1-16.32-6.7,49.17,49.17,0,0,1-9.78-6.27,16.13,16.13,0,0,1-4.46-7.84,52.49,52.49,0,0,1-1.39-13.68,60.71,60.71,0,0,1,.54-8.94,31.74,31.74,0,0,1,1.4-5.85,6.23,6.23,0,0,1,2.37-3.22,6.39,6.39,0,0,1,3.5-1c2,0,5.08,1.26,9.07,3.7s9,5.26,14.82,8.24a135.84,135.84,0,0,0,20.79,8.24,92.4,92.4,0,0,0,27.66,3.7,83.28,83.28,0,0,0,21.21-2.5,51.47,51.47,0,0,0,16.48-7.4,33.27,33.27,0,0,0,10.76-12.43,39.53,39.53,0,0,0,3.7-17.88,29,29,0,0,0-5.44-17.87,52.59,52.59,0,0,0-14.39-12.85,119.8,119.8,0,0,0-20.1-9.9q-11.12-4.33-23-9.09A232.64,232.64,0,0,1,1658,360.74a88.91,88.91,0,0,1-20.26-14.66,66.92,66.92,0,0,1-14.38-20.66,69.48,69.48,0,0,1-5.45-28.77,72.46,72.46,0,0,1,5.72-28.35,66,66,0,0,1,17.18-23.73,86.76,86.76,0,0,1,28.63-16.35,118.91,118.91,0,0,1,40.08-6.15,123.21,123.21,0,0,1,20.11,1.69,137.76,137.76,0,0,1,18.14,4.18,89.29,89.29,0,0,1,13.83,5.45,62,62,0,0,1,8.66,5.16,15.79,15.79,0,0,1,3.91,3.91,12.27,12.27,0,0,1,1.39,3.7c.28,1.39.55,3.13.85,5.16a57.65,57.65,0,0,1,.41,7.54,70.94,70.94,0,0,1-.41,8.24,21.44,21.44,0,0,1-1.41,5.74,7.38,7.38,0,0,1-2.37,3.2,5.27,5.27,0,0,1-3.07,1,15.47,15.47,0,0,1-7.26-3.07,99.83,99.83,0,0,0-12.29-6.56,136.24,136.24,0,0,0-17.74-6.57,81.25,81.25,0,0,0-23.31-3.07,73,73,0,0,0-20.68,2.65,39.55,39.55,0,0,0-14.64,7.55,31.76,31.76,0,0,0-8.67,11.59,35.85,35.85,0,0,0-2.92,14.51,29.53,29.53,0,0,0,5.55,18.3,53.6,53.6,0,0,0,14.54,13,121.48,121.48,0,0,0,20.36,10.05q11.45,4.49,23.31,9.26t23.46,10.62a87.37,87.37,0,0,1,20.53,14.24,64.33,64.33,0,0,1,14.38,20.11A65.73,65.73,0,0,1,1789.74,417.69Z"/><path d="M2053.16,349.61q0,10.89-5.55,15.5a18.82,18.82,0,0,1-12.48,4.61H1869.6a154.27,154.27,0,0,0,4.22,37.69,72.4,72.4,0,0,0,14,28.77,62.92,62.92,0,0,0,25.53,18.43q15.72,6.43,38.46,6.44a156.91,156.91,0,0,0,32-2.95,191.68,191.68,0,0,0,24.34-6.66q10.23-3.7,16.83-6.57a27.86,27.86,0,0,1,10-2.93,6.41,6.41,0,0,1,3.52,1,6.52,6.52,0,0,1,2.39,2.93,20.57,20.57,0,0,1,1.18,5.59,73.44,73.44,0,0,1,.43,8.52c0,2.42-.11,4.51-.28,6.27s-.42,3.35-.7,4.76a12.82,12.82,0,0,1-1.39,3.7,16.67,16.67,0,0,1-2.52,3.21,41.38,41.38,0,0,1-9.07,5,132.69,132.69,0,0,1-19.57,6.85,265.5,265.5,0,0,1-27.77,6,201.86,201.86,0,0,1-33.66,2.67q-31,0-54.32-8.67A100.48,100.48,0,0,1,1854,464.07a109.71,109.71,0,0,1-24.07-42.73q-8.1-25.68-8.11-59.77a189.21,189.21,0,0,1,8.37-58.22,123.57,123.57,0,0,1,24.16-43.84,105.78,105.78,0,0,1,38.12-27.64,125.17,125.17,0,0,1,50-9.65q29.63,0,50.39,9.5A95.43,95.43,0,0,1,2027,257.27a103.15,103.15,0,0,1,19.7,37.71,165.34,165.34,0,0,1,6.27,46.28Zm-46.28-13.68q.82-36.29-16.17-57t-50.48-20.72a67,67,0,0,0-30.07,6.42,65.42,65.42,0,0,0-21.64,17A78.5,78.5,0,0,0,1875,306.4a103.89,103.89,0,0,0-5.35,29.48Z"/><path d="M2323.43,389.42a108.4,108.4,0,0,1-4.33,31.47A92.79,92.79,0,0,1,2307,446.81a90.14,90.14,0,0,1-18.84,20.05,109.24,109.24,0,0,1-24.85,14.44,140.92,140.92,0,0,1-29.62,8.8,199.17,199.17,0,0,1-36.16,2.94h-94.42a19.72,19.72,0,0,1-12.14-4.33q-5.74-4.33-5.74-15.22V151.2q0-10.87,5.74-15.22a19.84,19.84,0,0,1,12.14-4.33h82.09q32.4,0,53.06,6.15a93.82,93.82,0,0,1,34.49,17.88,73.71,73.71,0,0,1,20.81,28.75,101.08,101.08,0,0,1,7,38.55,96.24,96.24,0,0,1-3.07,24.59,81.82,81.82,0,0,1-9.07,21.64,73.61,73.61,0,0,1-15.09,17.72,79.66,79.66,0,0,1-20.79,12.85,87.39,87.39,0,0,1,27.64,10.2,83.74,83.74,0,0,1,22.47,18.84,88,88,0,0,1,15.24,26.81A98.44,98.44,0,0,1,2323.43,389.42Zm-72.33-161.7a73.35,73.35,0,0,0-3.61-23.75,44.11,44.11,0,0,0-11.43-18,51.35,51.35,0,0,0-20.36-11.31q-12.54-3.88-33.16-3.91H2133v117h54.62q18.66,0,30.08-4.89a54.12,54.12,0,0,0,19-13.12,51,51,0,0,0,11-19.28,75,75,0,0,0,3.48-22.75Zm21.79,164.49a72.81,72.81,0,0,0-5.17-28.47,54,54,0,0,0-15-20.68,66.38,66.38,0,0,0-24.81-12.7Q2213,326,2190.39,326H2133V453.38h69.68a94.59,94.59,0,0,0,28.72-3.92A64.14,64.14,0,0,0,2253,437.87a53.26,53.26,0,0,0,14.6-19.14,62.83,62.83,0,0,0,5.3-26.52Z"/><path d="M2586.62,349.49c0,7.25-1.85,12.44-5.46,15.49a18.82,18.82,0,0,1-12.5,4.61H2403.15a154.9,154.9,0,0,0,4.2,37.71,72.75,72.75,0,0,0,14,28.76,63.07,63.07,0,0,0,25.53,18.51q15.72,6.4,38.46,6.42a157.6,157.6,0,0,0,32-2.92,190.74,190.74,0,0,0,24.27-6.57q10.26-3.71,16.85-6.58a27.73,27.73,0,0,1,10-2.92,6.39,6.39,0,0,1,3.5,1,6.19,6.19,0,0,1,2.38,2.92,20.48,20.48,0,0,1,1.26,5.56A73.44,73.44,0,0,1,2576,460a62.49,62.49,0,0,1-.28,6.27,45.88,45.88,0,0,1-.7,4.74,12.27,12.27,0,0,1-1.39,3.7,16.67,16.67,0,0,1-2.52,3.21,40.82,40.82,0,0,1-9.07,5,132.85,132.85,0,0,1-19.55,6.85,277.33,277.33,0,0,1-27.77,6,204.08,204.08,0,0,1-33.66,2.65q-31,0-54.3-8.65a100.84,100.84,0,0,1-39.25-25.69,109.91,109.91,0,0,1-24.07-42.73q-8-25.78-8-59.86a188,188,0,0,1,8.37-58.23,123.57,123.57,0,0,1,24.07-43.85,105.35,105.35,0,0,1,38.14-27.68,124.76,124.76,0,0,1,50-9.63q29.63,0,50.42,9.5a95.21,95.21,0,0,1,34.19,25.55,102.53,102.53,0,0,1,19.7,37.69,165.37,165.37,0,0,1,6.28,46.29Zm-46.29-13.69q.86-36.3-16.16-57t-50.43-20.66a66.4,66.4,0,0,0-30,6.42,64.81,64.81,0,0,0-21.64,17,77.79,77.79,0,0,0-13.5,24.72,102.91,102.91,0,0,0-5.33,29.45Z"/><path d="M2835.29,486a6.3,6.3,0,0,1-1.11,3.71,8.92,8.92,0,0,1-3.71,2.64,25.36,25.36,0,0,1-7,1.69,93.45,93.45,0,0,1-11.1.55,95.12,95.12,0,0,1-11.45-.55,25.51,25.51,0,0,1-7-1.69,8.77,8.77,0,0,1-3.71-2.64,6.3,6.3,0,0,1-1.11-3.71V338.88q0-21.5-3.35-34.62a72,72,0,0,0-9.77-22.63,42.54,42.54,0,0,0-16.67-14.53,52.83,52.83,0,0,0-23.6-5q-17.32,0-34.64,12.29t-36.31,36V486a6.23,6.23,0,0,1-1.11,3.71,8.74,8.74,0,0,1-3.7,2.64,25.36,25.36,0,0,1-7,1.69,95.29,95.29,0,0,1-11.46.55,93.72,93.72,0,0,1-11.11-.55,27.68,27.68,0,0,1-7.12-1.69,7.72,7.72,0,0,1-3.71-2.64,7,7,0,0,1-1-3.71V234.7a7.78,7.78,0,0,1,.83-3.7,7.44,7.44,0,0,1,3.35-2.8,18.91,18.91,0,0,1,6.43-1.66,101.72,101.72,0,0,1,10.33-.43c4.09,0,7.4.15,10.2.43a16.59,16.59,0,0,1,6.28,1.66,8.81,8.81,0,0,1,3.2,2.8,6.87,6.87,0,0,1,1,3.7V268q21.21-23.73,42.3-34.76a91.15,91.15,0,0,1,42.59-11.11q25.14,0,42.3,8.51a76.11,76.11,0,0,1,27.77,22.76,90.51,90.51,0,0,1,15.22,33.32,198.68,198.68,0,0,1,4.61,45.93Z"/><path d="M3065.7,447.79a73.12,73.12,0,0,1-.28,8.24,29.87,29.87,0,0,1-1,5.87,20.76,20.76,0,0,1-1.68,4.18,26.47,26.47,0,0,1-4.47,5.32,70.27,70.27,0,0,1-11.86,8.64,114.38,114.38,0,0,1-18.85,9.26,139.69,139.69,0,0,1-22.77,6.55,126.21,126.21,0,0,1-25.42,2.49,121.55,121.55,0,0,1-48.14-8.95,90.29,90.29,0,0,1-35-26.1,118.19,118.19,0,0,1-21.5-42.18q-7.41-25-7.4-57.67,0-37.11,9.07-63.79t24.86-43.72a98.54,98.54,0,0,1,37.14-25.27,127,127,0,0,1,46.29-8.23,120.12,120.12,0,0,1,23.32,2.22,128.42,128.42,0,0,1,20.81,5.87,92.56,92.56,0,0,1,16.89,8.38,68.42,68.42,0,0,1,10.75,8.09,35.92,35.92,0,0,1,4.61,5.32,18.45,18.45,0,0,1,2.09,4.61,27.17,27.17,0,0,1,1.12,6c.18,2.24.27,5,.27,8.39q0,10.89-2.5,15.22c-1.68,2.89-3.7,4.33-6.14,4.33q-4.2,0-9.65-4.61a152.68,152.68,0,0,0-13.81-10.2,104.35,104.35,0,0,0-20.25-10.18,76.94,76.94,0,0,0-28.07-4.61q-33.33,0-51,25.55t-17.73,74.05a174.83,174.83,0,0,0,4.61,42.58A88.07,88.07,0,0,0,2933.57,434a55.91,55.91,0,0,0,21.92,18.29,70.22,70.22,0,0,0,29.73,6,72,72,0,0,0,27.94-5A118.09,118.09,0,0,0,3034,442.18q8.78-6,14.81-10.9c4-3.24,7.13-4.89,9.37-4.89a5.3,5.3,0,0,1,3.35,1.13,8.76,8.76,0,0,1,2.37,3.7,28.91,28.91,0,0,1,1.39,6.71A98.29,98.29,0,0,1,3065.7,447.79Z"/><path d="M3314.39,484.45a6.3,6.3,0,0,1-1.13,3.71,8.68,8.68,0,0,1-3.71,2.64,25.36,25.36,0,0,1-7,1.69,91.39,91.39,0,0,1-11.1.55,95.29,95.29,0,0,1-11.46-.55,25.36,25.36,0,0,1-7-1.69,8.77,8.77,0,0,1-3.71-2.64,6.28,6.28,0,0,1-1.11-3.71V337.29q0-21.5-3.37-34.62a71.47,71.47,0,0,0-9.75-22.63,42.62,42.62,0,0,0-16.67-14.53,52.74,52.74,0,0,0-23.58-5q-17.33,0-34.64,12.3t-36.31,36V484.45a6.28,6.28,0,0,1-1.11,3.71,8.8,8.8,0,0,1-3.7,2.64,25.53,25.53,0,0,1-7,1.69,97.5,97.5,0,0,1-11.46.56,93.73,93.73,0,0,1-11.11-.56,27.45,27.45,0,0,1-7.13-1.69,7.61,7.61,0,0,1-3.7-2.64,6.9,6.9,0,0,1-1-3.71V111.37a7.63,7.63,0,0,1,1-3.91,7.17,7.17,0,0,1,3.7-2.8,27.84,27.84,0,0,1,7.13-1.68,93.73,93.73,0,0,1,11.11-.56,97.5,97.5,0,0,1,11.46.56,25.88,25.88,0,0,1,7,1.68,8.21,8.21,0,0,1,3.7,2.8,6.77,6.77,0,0,1,1.11,3.91V261.88q19.83-20.94,39.94-31.14a88.83,88.83,0,0,1,40.49-10.18q25.13,0,42.32,8.52a76.44,76.44,0,0,1,27.77,22.75,90.82,90.82,0,0,1,15.22,33.32,200.06,200.06,0,0,1,4.61,46.29Z"/></svg>