<svg id="Layer_1" data-name="Layer 1" xmlns="http://www.w3.org/2000/svg" viewBox="0 0 3318 498.43"><defs><style>.cls-1{fill:#fc4d04;}.cls-2{fill:#0fb6f7;}.cls-3{fill:#9321d6;}.cls-4{fill:#cc5fff;}.cls-5{fill:#ff8d8d;}.cls-6{fill:#fff;}</style></defs><path class="cls-1" d="M192.4,433.3v39.2a43.61,43.61,0,0,0,.3,5.1v-51C192.6,428.9,192.4,431.1,192.4,433.3Z"/><path class="cls-2" d="M439.2,330.2h61.6a52.28,52.28,0,0,1,52.3,52.3v61.6a52.28,52.28,0,0,1-52.3,52.3H439.2a52.28,52.28,0,0,1-52.3-52.3V382.5A52.47,52.47,0,0,1,439.2,330.2Z"/><path class="cls-3" d="M45.1,250C45.1,148.6,55.2,9.1,120.8.4a49.22,49.22,0,0,0-6.7-.4H52.8A52.81,52.81,0,0,0,0,52.8V445.6a52.81,52.81,0,0,0,52.8,52.8h61.3a43,43,0,0,0,6.2-.4C65.9,490,45.1,351.6,45.1,250Z"/><path class="cls-4" d="M166.9,445.6V52.8A52.88,52.88,0,0,0,120.7.4C55.1,9.1,45,148.6,45,250s20.8,240,75.2,248A52.69,52.69,0,0,0,166.9,445.6Z"/><path class="cls-1" d="M192.9,205.5a39,39,0,0,0-.4,5.9v34.8c0,2.2.1,4.3.3,6.5V209.6A27.73,27.73,0,0,1,192.9,205.5Z"/><path class="cls-1" d="M278.5,326.2h5.7a80,80,0,0,0,80-80h0a80,80,0,0,0-80-80H237.7a56.53,56.53,0,0,0-5.9.4C275.1,173.3,278.3,259.9,278.5,326.2Z"/><path class="cls-1" d="M233.3,498c2.1.3,4.2.4,6.2.5h38.8a86,86,0,0,0,85.9-85.9h0v-.4a85.93,85.93,0,0,0-85.8-85.9v5.9C278.5,398.9,270,490.8,233.3,498Z"/><path class="cls-5" d="M278.5,326.2h0c-.2-66.3-3.4-152.9-46.7-159.6a45.2,45.2,0,0,0-38.9,38.9c-.1,1.4-.1,2.7-.1,4.1V456.5A46.94,46.94,0,0,0,233.3,498c36.7-7.2,45.2-99.1,45.2-165.9Z"/><path class="cls-6" d="M868.7,442a61.16,61.16,0,0,1-.3,7.8,30.34,30.34,0,0,1-1,5.9,17.9,17.9,0,0,1-1.9,4.5,25,25,0,0,1-3.9,4.7,81.2,81.2,0,0,1-11.7,8.5,135.34,135.34,0,0,1-22.2,11.1,190.46,190.46,0,0,1-30.4,9.3,175.67,175.67,0,0,1-37.6,3.7c-23.5,0-44.6-3.9-63.5-11.7a128.27,128.27,0,0,1-48.3-34.6Q628,428.25,617.2,394.7c-7.2-22.4-10.8-48.3-10.8-77.5q0-45,11.6-80.1,11.55-35.25,32.6-59.5a139.52,139.52,0,0,1,50.1-37.3,157.58,157.58,0,0,1,64.6-12.8,163.08,163.08,0,0,1,30.4,2.9,201.64,201.64,0,0,1,27.4,7.4,125.5,125.5,0,0,1,22.3,10.3,75.9,75.9,0,0,1,13.6,9.6,33.49,33.49,0,0,1,4.9,5.7,23.41,23.41,0,0,1,1.9,4.6,46.19,46.19,0,0,1,1.1,6.3,83.79,83.79,0,0,1,.4,8.6,60.62,60.62,0,0,1-.6,9.5A24.66,24.66,0,0,1,865,199a10.54,10.54,0,0,1-2.7,3.9,6.4,6.4,0,0,1-3.7,1.3c-2.6,0-6.3-1.8-10.9-5.4a168.14,168.14,0,0,0-18.2-12,148.1,148.1,0,0,0-27-12,116.92,116.92,0,0,0-38-5.4,99.33,99.33,0,0,0-43.9,9.6,91.43,91.43,0,0,0-33.8,28.2A138.63,138.63,0,0,0,665,252.9a225.48,225.48,0,0,0-7.7,61.7c0,22.9,2.5,43.2,7.4,60.7s12.1,32.3,21.3,44.1a89.38,89.38,0,0,0,34.1,26.8,110.34,110.34,0,0,0,45.7,9,123.19,123.19,0,0,0,37.7-5.3A142.83,142.83,0,0,0,831,438a203.51,203.51,0,0,0,18.7-11.9c4.9-3.5,8.7-5.3,11.5-5.3a6.92,6.92,0,0,1,3.4.9,5.51,5.51,0,0,1,2.2,3.2,28.6,28.6,0,0,1,1.3,6.6A61.77,61.77,0,0,1,868.7,442Z"/><path class="cls-6" d="M1152,357.6a187.22,187.22,0,0,1-8.1,56.6,124.39,124.39,0,0,1-24.1,44.5,109.67,109.67,0,0,1-40.2,29.2q-24,10.5-56,10.5-31.05,0-54-9.3a98.29,98.29,0,0,1-38.4-26.8,114.14,114.14,0,0,1-22.9-42.7,199.38,199.38,0,0,1-7.6-57,190.77,190.77,0,0,1,8-56.6,120.59,120.59,0,0,1,24.1-44.5,108,108,0,0,1,40.1-29c16-6.9,34.8-10.3,56.1-10.3q31.05,0,54,9.3a98.29,98.29,0,0,1,38.4,26.8,114.36,114.36,0,0,1,23,42.7A190.39,190.39,0,0,1,1152,357.6Zm-47.7,3.1a184.17,184.17,0,0,0-3.8-38.5,95.19,95.19,0,0,0-12.5-31.8,61.58,61.58,0,0,0-23.7-21.6c-9.9-5.3-22.3-8-37.2-8-13.7,0-25.5,2.4-35.4,7.3a65.47,65.47,0,0,0-24.4,20.5,91.55,91.55,0,0,0-14.2,31.5,160.55,160.55,0,0,0-4.6,39.6,187.89,187.89,0,0,0,3.7,38.9,91,91,0,0,0,12.7,31.7,63.87,63.87,0,0,0,23.8,21.5c10,5.3,22.4,8,37.2,8a79.2,79.2,0,0,0,35.2-7.3,65.52,65.52,0,0,0,24.5-20.4,87.78,87.78,0,0,0,14.1-31.3A175,175,0,0,0,1104.3,360.7Z"/><path class="cls-6" d="M1400.8,486.1a6.86,6.86,0,0,1-1,3.7,7.53,7.53,0,0,1-3.5,2.6,24.66,24.66,0,0,1-6.6,1.7,82.2,82.2,0,0,1-9.9.6,92.4,92.4,0,0,1-10.5-.6,20.22,20.22,0,0,1-6.4-1.7,6.32,6.32,0,0,1-3.2-2.6,6.71,6.71,0,0,1-.8-3.7V452.8c-14.3,15.8-28.5,27.4-42.5,34.6a91,91,0,0,1-42.5,10.9q-25.2,0-42.3-8.4a74.1,74.1,0,0,1-27.8-22.8,90.16,90.16,0,0,1-15.2-33.5,202.17,202.17,0,0,1-4.6-46.5V234.8a6.86,6.86,0,0,1,1-3.7,8.51,8.51,0,0,1,3.7-2.8,22.87,22.87,0,0,1,7.3-1.7c3-.3,6.7-.4,11.1-.4s8.2.1,11.1.4a19,19,0,0,1,7.1,1.7,10.1,10.1,0,0,1,3.7,2.8,7,7,0,0,1,1.1,3.7V381.1c0,14.7,1.1,26.5,3.2,35.3a64.25,64.25,0,0,0,9.8,22.6,45.81,45.81,0,0,0,16.7,14.5,51.43,51.43,0,0,0,23.5,5.2c11.6,0,23-4.1,34.5-12.3s23.6-20.2,36.5-36V234.8a6.86,6.86,0,0,1,1-3.7,9.34,9.34,0,0,1,3.7-2.8,25.37,25.37,0,0,1,7.1-1.7c2.9-.3,6.6-.4,11.3-.4,4.5,0,8.2.1,11.1.4a18.94,18.94,0,0,1,7,1.7,11.33,11.33,0,0,1,3.7,2.8,6.4,6.4,0,0,1,1.3,3.7Z"/><path class="cls-6" d="M1597.8,251.1c0,4.1-.1,7.5-.3,10.3a30.35,30.35,0,0,1-1.1,6.6,9.13,9.13,0,0,1-2.1,3.7,4.91,4.91,0,0,1-3.5,1.3,14.27,14.27,0,0,1-5.4-1.3c-2.1-.8-4.6-1.7-7.3-2.5s-5.7-1.6-9.1-2.4a49.79,49.79,0,0,0-10.9-1.1,35.7,35.7,0,0,0-13.7,2.8,50.77,50.77,0,0,0-14.1,9.3,113.82,113.82,0,0,0-15.5,17c-5.4,7.1-11.4,15.7-17.9,25.9V486a7,7,0,0,1-1.1,3.7,8.64,8.64,0,0,1-3.7,2.6,27.56,27.56,0,0,1-7,1.7,109.31,109.31,0,0,1-11.5.6,103.2,103.2,0,0,1-11.1-.6,25.37,25.37,0,0,1-7.1-1.7,7.6,7.6,0,0,1-3.7-2.6,6.86,6.86,0,0,1-1-3.7V234.7a9.09,9.09,0,0,1,.8-3.7,7.81,7.81,0,0,1,3.4-2.8,20.22,20.22,0,0,1,6.4-1.7c3.4-.3,6.9-.4,10.3-.4a98.22,98.22,0,0,1,10.2.4,15.58,15.58,0,0,1,6.3,1.7,8.67,8.67,0,0,1,3.2,2.8,6.86,6.86,0,0,1,1,3.7v36.6a199.8,199.8,0,0,1,19.4-24.6,101.69,101.69,0,0,1,17.2-14.9,55.35,55.35,0,0,1,16.1-7.6,61.84,61.84,0,0,1,16.1-2.1c2.4,0,5.2.1,8.2.4a76.71,76.71,0,0,1,9.6,1.5,94.07,94.07,0,0,1,9.1,2.5,16.86,16.86,0,0,1,5.7,2.8,7.84,7.84,0,0,1,2.2,2.6,17,17,0,0,1,1,3.2,55.09,55.09,0,0,1,.6,5.7A99.84,99.84,0,0,1,1597.8,251.1Z"/><path class="cls-6" d="M1789.7,417.7a80.11,80.11,0,0,1-7.1,34.4,70.6,70.6,0,0,1-20.3,25.4,89.37,89.37,0,0,1-31.3,15.6,138.08,138.08,0,0,1-39.9,5.3,154.84,154.84,0,0,1-25.5-2.1,147.42,147.42,0,0,1-21.8-5.3,116.23,116.23,0,0,1-16.3-6.7,48.14,48.14,0,0,1-9.8-6.3,15.78,15.78,0,0,1-4.5-7.8,52.73,52.73,0,0,1-1.4-13.7,65.48,65.48,0,0,1,.5-8.9,42,42,0,0,1,1.4-5.9,5.85,5.85,0,0,1,2.4-3.2,6.2,6.2,0,0,1,3.5-1c2,0,5.1,1.3,9.1,3.7s8.9,5.3,14.8,8.2a128.44,128.44,0,0,0,20.8,8.2,92.57,92.57,0,0,0,27.7,3.7,83.67,83.67,0,0,0,21.2-2.5,52.25,52.25,0,0,0,16.5-7.4,33.11,33.11,0,0,0,10.8-12.4,39.43,39.43,0,0,0,3.7-17.9,29.32,29.32,0,0,0-5.4-17.9,51.83,51.83,0,0,0-14.4-12.8,125,125,0,0,0-20.1-9.9c-7.4-2.9-15.1-5.9-23-9.1a243.55,243.55,0,0,1-23.2-10.7,88.34,88.34,0,0,1-20.3-14.7,66.44,66.44,0,0,1-14.4-20.7,69.3,69.3,0,0,1-5.4-28.8,72.27,72.27,0,0,1,5.7-28.3,65.2,65.2,0,0,1,17.2-23.7,85.7,85.7,0,0,1,28.6-16.3,118.73,118.73,0,0,1,40.1-6.1,123,123,0,0,1,20.1,1.7,139.73,139.73,0,0,1,18.1,4.2,82.34,82.34,0,0,1,13.8,5.4,64.49,64.49,0,0,1,8.7,5.2,18,18,0,0,1,3.9,3.9,12.81,12.81,0,0,1,1.4,3.7c.3,1.4.6,3.1.9,5.2a62.82,62.82,0,0,1,.4,7.5,73.83,73.83,0,0,1-.4,8.2,21.63,21.63,0,0,1-1.4,5.7,7,7,0,0,1-2.4,3.2,5.71,5.71,0,0,1-3.1,1,15.75,15.75,0,0,1-7.3-3.1,90.62,90.62,0,0,0-12.3-6.6,145.31,145.31,0,0,0-17.7-6.6,83.36,83.36,0,0,0-23.3-3.1,76.31,76.31,0,0,0-20.7,2.6,38.54,38.54,0,0,0-14.6,7.6,32.27,32.27,0,0,0-8.7,11.6,34.5,34.5,0,0,0-2.9,14.5,29.38,29.38,0,0,0,5.6,18.3,52.94,52.94,0,0,0,14.5,13,129,129,0,0,0,20.4,10.1c7.6,3,15.4,6.1,23.3,9.3s15.7,6.7,23.5,10.6a85.37,85.37,0,0,1,20.5,14.2,65.51,65.51,0,0,1,14.4,20.1A68.13,68.13,0,0,1,1789.7,417.7Z"/><path class="cls-6" d="M2053.1,349.6c0,7.3-1.9,12.4-5.6,15.5a19.11,19.11,0,0,1-12.5,4.6H1869.5a159.08,159.08,0,0,0,4.2,37.7,74.35,74.35,0,0,0,14,28.8,63.17,63.17,0,0,0,25.5,18.4c10.5,4.3,23.3,6.4,38.5,6.4a163.53,163.53,0,0,0,32-2.9,181.74,181.74,0,0,0,24.3-6.7q10.2-3.75,16.8-6.6a26.83,26.83,0,0,1,10-2.9,6.25,6.25,0,0,1,5.9,3.9,18.11,18.11,0,0,1,1.2,5.6,80.6,80.6,0,0,1,.4,8.5,57.84,57.84,0,0,1-.3,6.3c-.2,1.8-.4,3.4-.7,4.8a12.81,12.81,0,0,1-1.4,3.7,19.63,19.63,0,0,1-2.5,3.2,42.23,42.23,0,0,1-9.1,5,134,134,0,0,1-19.6,6.9,259.24,259.24,0,0,1-27.8,6,210.81,210.81,0,0,1-33.7,2.7q-31,0-54.3-8.7a99.92,99.92,0,0,1-39.2-25.7,110.51,110.51,0,0,1-24.1-42.7q-8.1-25.65-8.1-59.8a188.08,188.08,0,0,1,8.4-58.2,123.18,123.18,0,0,1,24.2-43.8,105.21,105.21,0,0,1,38.1-27.6,124.05,124.05,0,0,1,50-9.6c19.7,0,36.5,3.2,50.4,9.5a95.7,95.7,0,0,1,34.2,25.5,104,104,0,0,1,19.7,37.7,164.72,164.72,0,0,1,6.3,46.3Zm-46.3-13.7q.9-36.3-16.2-57t-50.5-20.7a67.94,67.94,0,0,0-30.1,6.4,66.28,66.28,0,0,0-21.6,17,80.36,80.36,0,0,0-13.5,24.7,105.28,105.28,0,0,0-5.4,29.5Z"/><path class="cls-6" d="M2323.4,389.4a111.89,111.89,0,0,1-4.3,31.5,94.29,94.29,0,0,1-12.1,25.9,92,92,0,0,1-18.8,20.1,109.9,109.9,0,0,1-24.8,14.4,139.86,139.86,0,0,1-29.6,8.8,190.2,190.2,0,0,1-36.2,2.9h-94.4a19.63,19.63,0,0,1-12.1-4.3c-3.8-2.9-5.7-8-5.7-15.2V151.2c0-7.3,1.9-12.3,5.7-15.2a19.25,19.25,0,0,1,12.1-4.3h82.1c21.6,0,39.3,2,53.1,6.1a94.06,94.06,0,0,1,34.5,17.9,72.9,72.9,0,0,1,20.8,28.8,101.77,101.77,0,0,1,7,38.5,97,97,0,0,1-3.1,24.6,80.58,80.58,0,0,1-9.1,21.6,75.39,75.39,0,0,1-15.1,17.7,76.74,76.74,0,0,1-20.8,12.8,87.45,87.45,0,0,1,27.6,10.2,84.24,84.24,0,0,1,37.7,45.6A103.34,103.34,0,0,1,2323.4,389.4Zm-72.3-161.7a73.91,73.91,0,0,0-3.6-23.8,45,45,0,0,0-11.4-18,51.25,51.25,0,0,0-20.4-11.3c-8.4-2.6-19.4-3.9-33.2-3.9h-49.6v117h54.6c12.4,0,22.5-1.6,30.1-4.9a54.4,54.4,0,0,0,19-13.1,50.85,50.85,0,0,0,11-19.3,75.78,75.78,0,0,0,3.5-22.7Zm21.7,164.5a73.46,73.46,0,0,0-5.2-28.5,54.39,54.39,0,0,0-15.1-20.7,66.49,66.49,0,0,0-24.8-12.7c-9.9-2.9-22.4-4.3-37.5-4.3h-57.4V453.4h69.7a96.07,96.07,0,0,0,28.7-3.9,63.68,63.68,0,0,0,21.6-11.6,52.49,52.49,0,0,0,14.6-19.1,61.26,61.26,0,0,0,5.4-26.6Z"/><path class="cls-6" d="M2586.6,349.5c0,7.3-1.9,12.4-5.5,15.5a19.11,19.11,0,0,1-12.5,4.6H2403.1a154.06,154.06,0,0,0,4.2,37.7,74.35,74.35,0,0,0,14,28.8,63.4,63.4,0,0,0,25.5,18.5c10.5,4.3,23.3,6.4,38.5,6.4a163.53,163.53,0,0,0,32-2.9,189.94,189.94,0,0,0,24.3-6.6c6.8-2.5,12.5-4.7,16.8-6.6a26.83,26.83,0,0,1,10-2.9,6.25,6.25,0,0,1,5.9,3.9,21.71,21.71,0,0,1,1.3,5.6,80.6,80.6,0,0,1,.4,8.5q0,3.15-.3,6.3a39.89,39.89,0,0,1-.7,4.7,11.81,11.81,0,0,1-1.4,3.7,19.63,19.63,0,0,1-2.5,3.2,35.1,35.1,0,0,1-9.1,5,134,134,0,0,1-19.6,6.9,259.24,259.24,0,0,1-27.8,6,199.76,199.76,0,0,1-33.7,2.6q-31.05,0-54.3-8.6a101,101,0,0,1-39.2-25.7,110.51,110.51,0,0,1-24.1-42.7c-5.3-17.2-8-37.1-8-59.9a185.15,185.15,0,0,1,8.4-58.2,122.68,122.68,0,0,1,24.1-43.9,106.66,106.66,0,0,1,38.1-27.7,124.05,124.05,0,0,1,50-9.6c19.7,0,36.6,3.2,50.4,9.5a95.7,95.7,0,0,1,34.2,25.5,104,104,0,0,1,19.7,37.7,164.72,164.72,0,0,1,6.3,46.3v8.4Zm-46.3-13.7q.9-36.3-16.2-57c-11.3-13.8-28.2-20.7-50.4-20.7a67.22,67.22,0,0,0-30,6.4,65.25,65.25,0,0,0-21.6,17,77.25,77.25,0,0,0-13.5,24.7,101.71,101.71,0,0,0-5.3,29.5Z"/><path class="cls-6" d="M2835.2,486a7,7,0,0,1-1.1,3.7,8.64,8.64,0,0,1-3.7,2.6,23.91,23.91,0,0,1-7,1.7,103.2,103.2,0,0,1-11.1.6,87.09,87.09,0,0,1-11.4-.6,23.91,23.91,0,0,1-7-1.7,9.59,9.59,0,0,1-3.7-2.6,6.18,6.18,0,0,1-1.1-3.7V338.9c0-14.3-1.1-25.9-3.4-34.6a69.94,69.94,0,0,0-9.8-22.6,42.6,42.6,0,0,0-16.7-14.5,52.23,52.23,0,0,0-23.6-5c-11.6,0-23.1,4.1-34.6,12.3s-23.6,20.2-36.3,36V486.2a7,7,0,0,1-1.1,3.7,8.64,8.64,0,0,1-3.7,2.6,23.91,23.91,0,0,1-7,1.7,109.31,109.31,0,0,1-11.5.6,82.59,82.59,0,0,1-11.1-.6,25.37,25.37,0,0,1-7.1-1.7,7.6,7.6,0,0,1-3.7-2.6,6.86,6.86,0,0,1-1-3.7V234.7a9.09,9.09,0,0,1,.8-3.7,7.81,7.81,0,0,1,3.4-2.8,20.22,20.22,0,0,1,6.4-1.7,88.68,88.68,0,0,1,10.3-.4,98.22,98.22,0,0,1,10.2.4,15.58,15.58,0,0,1,6.3,1.7,8.67,8.67,0,0,1,3.2,2.8,6.86,6.86,0,0,1,1,3.7V268q21.15-23.7,42.3-34.8a91.93,91.93,0,0,1,42.6-11.1c16.8,0,30.9,2.8,42.3,8.5a76.86,76.86,0,0,1,27.8,22.8,90,90,0,0,1,15.2,33.3,197.06,197.06,0,0,1,4.6,45.9Z"/><path class="cls-6" d="M3065.7,447.8a67.08,67.08,0,0,1-.3,8.2,29.11,29.11,0,0,1-1,5.9,19.44,19.44,0,0,1-1.7,4.2,28.68,28.68,0,0,1-4.5,5.3,63.28,63.28,0,0,1-11.9,8.6,113.28,113.28,0,0,1-18.8,9.3,148.82,148.82,0,0,1-22.8,6.6,127.92,127.92,0,0,1-25.4,2.5,121.58,121.58,0,0,1-48.1-8.9,90.33,90.33,0,0,1-35-26.1,119.75,119.75,0,0,1-21.5-42.2q-7.35-25.05-7.4-57.7,0-37,9.1-63.8t24.9-43.7a99.41,99.41,0,0,1,37.1-25.3,126.32,126.32,0,0,1,46.3-8.2,121.78,121.78,0,0,1,23.3,2.2,126.26,126.26,0,0,1,20.8,5.9,88.74,88.74,0,0,1,16.9,8.4,69.19,69.19,0,0,1,10.8,8.1,38.87,38.87,0,0,1,4.6,5.3,19.15,19.15,0,0,1,2.1,4.6,25.31,25.31,0,0,1,1.1,6q.3,3.3.3,8.4c0,7.3-.8,12.3-2.5,15.2s-3.7,4.3-6.1,4.3c-2.8,0-6-1.5-9.6-4.6a136.42,136.42,0,0,0-13.8-10.2,110.21,110.21,0,0,0-20.3-10.2,76.77,76.77,0,0,0-28.1-4.6q-33.3,0-51,25.5t-17.7,74.1a174.91,174.91,0,0,0,4.6,42.6,86.82,86.82,0,0,0,13.6,30.6,56.29,56.29,0,0,0,21.9,18.3,78.31,78.31,0,0,0,57.6,1,115.26,115.26,0,0,0,20.8-11.1c5.9-4,10.8-7.6,14.8-10.9s7.1-4.9,9.4-4.9a6,6,0,0,1,3.4,1.1,9.13,9.13,0,0,1,2.4,3.7,30.72,30.72,0,0,1,1.4,6.7C3065.5,441.2,3065.7,444.5,3065.7,447.8Z"/><path class="cls-6" d="M3314.3,484.4a7,7,0,0,1-1.1,3.7,8.64,8.64,0,0,1-3.7,2.6,23.91,23.91,0,0,1-7,1.7,103.2,103.2,0,0,1-11.1.6,88.62,88.62,0,0,1-11.5-.6,24.71,24.71,0,0,1-7-1.7,9.59,9.59,0,0,1-3.7-2.6,6.18,6.18,0,0,1-1.1-3.7V337.3c0-14.3-1.1-25.9-3.4-34.6a69.94,69.94,0,0,0-9.8-22.6,42.6,42.6,0,0,0-16.7-14.5,52,52,0,0,0-23.6-5c-11.6,0-23.1,4.1-34.6,12.3s-23.6,20.2-36.3,36V484.6a7,7,0,0,1-1.1,3.7,8.64,8.64,0,0,1-3.7,2.6,23.91,23.91,0,0,1-7,1.7,109.31,109.31,0,0,1-11.5.6,82.59,82.59,0,0,1-11.1-.6,25.37,25.37,0,0,1-7.1-1.7,7.6,7.6,0,0,1-3.7-2.6,6.86,6.86,0,0,1-1-3.7V111.4a7.56,7.56,0,0,1,1-3.9,7.36,7.36,0,0,1,3.7-2.8,29.39,29.39,0,0,1,7.1-1.7,103.2,103.2,0,0,1,11.1-.6,88.62,88.62,0,0,1,11.5.6,24.71,24.71,0,0,1,7,1.7,8,8,0,0,1,3.7,2.8,6.79,6.79,0,0,1,1.1,3.9V261.9c13.2-14,26.5-24.3,39.9-31.1a88.11,88.11,0,0,1,40.5-10.2c16.7,0,30.9,2.8,42.3,8.5a76.86,76.86,0,0,1,27.8,22.8,90,90,0,0,1,15.2,33.3,199.92,199.92,0,0,1,4.6,46.3Z"/></svg>