<svg xmlns="http://www.w3.org/2000/svg" viewBox="0 0 1080 1080"><defs><style>.cls-1{fill:#0fb6f7;}.cls-2{fill:#9321d6;}.cls-3{fill:#cc5fff;}.cls-4{fill:#fc4d04;}.cls-5{fill:#ff8d8d;}</style></defs><g id="图层_1" data-name="图层 1"><rect class="cls-1" x="713.74" y="645.57" width="213.26" height="213.26" rx="67.1"/><path class="cls-2" d="M275,542.57c0-130.1,13-309.24,97.12-320.37a68.85,68.85,0,0,0-8.55-.55H284.81A67.81,67.81,0,0,0,217,289.46V793.62a67.81,67.81,0,0,0,67.81,67.81h78.72a69.23,69.23,0,0,0,7.94-.48C301.66,850.59,275,672.92,275,542.57Z"/><path class="cls-3" d="M431.34,793.62V289.46a67.82,67.82,0,0,0-59.26-67.26C287.92,233.33,275,412.47,275,542.57c0,130.35,26.7,308,96.51,318.38A67.8,67.8,0,0,0,431.34,793.62Z"/><path class="cls-4" d="M464.62,485.4a59.36,59.36,0,0,0-.55,7.6v44.64c0,2.79.14,5.54.36,8.28V490.63C464.43,488.92,464.5,487.17,464.62,485.4Z"/><path class="cls-4" d="M574.52,640.37h7.37A102.73,102.73,0,0,0,684.62,537.64h0A102.73,102.73,0,0,0,581.89,434.91H522.16a59.36,59.36,0,0,0-7.6.55C570.14,444.07,574.32,555.3,574.52,640.37Z"/><path class="cls-4" d="M516.48,860.84a60.52,60.52,0,0,0,8,.59h49.86A110.27,110.27,0,0,0,684.62,751.15v-.51a110.27,110.27,0,0,0-110.1-110.27c0,2.53,0,5,0,7.52C574.53,733.65,563.57,851.66,516.48,860.84Z"/><path class="cls-4" d="M464.07,750.64V801a60.54,60.54,0,0,0,.36,6.5V742.1C464.21,744.92,464.07,747.77,464.07,750.64Z"/><path class="cls-5" d="M574.35,640.37h0Z"/><path class="cls-5" d="M574.52,640.37h0c-.2-85.07-4.38-196.3-60-204.91a58,58,0,0,0-49.94,49.94c-.12,1.77-.19,3.52-.19,5.23V807.51a60.39,60.39,0,0,0,52.05,53.33c47.09-9.18,58-127.19,58-213C574.53,645.41,574.52,642.9,574.52,640.37Z"/></g></svg>